<?xml version="1.0" encoding="utf-8"?>
<!-- Generator: Adobe Illustrator 25.2.1, SVG Export Plug-In . SVG Version: 6.00 Build 0)  -->
<svg version="1.1" id="Capa_1" xmlns="http://www.w3.org/2000/svg" xmlns:xlink="http://www.w3.org/1999/xlink" x="0px" y="0px"
	 viewBox="0 0 512 78.4" style="enable-background:new 0 0 512 78.4;" xml:space="preserve">
<style type="text/css">
	.st0{fill:#021E2F;}
</style>
<g>
	<path class="st0" d="M254.3,48.4c-6.2,0-12.4,0-18.6,0c-2.6,0-4.9-0.7-7.1-2.1c-3.5-2.3-5.5-5.6-6-9.8c0-0.1,0-0.2,0-0.3
		c0-0.5,0-0.5,0.5-0.5c2.3,0,4.7,0,7,0c0.4,0,0.5,0.1,0.6,0.5c0.5,2.6,2.9,4.2,5.5,4.2c12.1,0,24.1,0,36.2,0c2.3,0,4-1,5-3.1
		c0.9-1.9,0.5-4.2-1-5.7c-1.1-1.1-2.4-1.6-4-1.6c-12.1,0-24.1,0-36.2,0c-3.5,0-6.6-1-9.2-3.3c-2.4-2.1-3.9-4.7-4.3-7.9
		c-0.5-3.6,0.2-7,2.3-9.9c2.3-3.2,5.5-5,9.4-5.4c0.6-0.1,1.2-0.1,1.8-0.1c12,0,24,0,36,0c2.9,0,5.7,0.7,8.1,2.5c1.7,1.2,3,2.7,4,4.5
		c0.8,1.5,1.3,3.1,1.5,4.8c0,0.1,0,0.3,0,0.4c0,0.6,0,0.6-0.6,0.6c-2.3,0-4.6,0-6.9,0c-0.6,0-0.6,0-0.7-0.6
		c-0.5-2.4-2.7-4.1-5.2-4.1c-12.2,0-24.5,0-36.7,0c-2.4,0-4.5,1.7-5.1,4c-0.6,2.2,0.6,4.9,2.7,5.9c0.8,0.4,1.6,0.6,2.5,0.6
		c12.2,0,24.3,0,36.5,0c3.2,0,6.1,1,8.5,3.1c2.9,2.4,4.5,5.5,4.8,9.3c0.3,3.7-0.8,7-3.3,9.8c-2.6,2.9-5.8,4.5-9.7,4.5
		C266.7,48.4,260.5,48.4,254.3,48.4z"/>
	<path class="st0" d="M477.8,48.4c-6.3,0-12.5,0-18.8,0c-2.1,0-4.1-0.6-6-1.6c-2-1.1-3.7-2.7-4.9-4.7c-0.9-1.5-1.5-3.1-1.8-4.9
		c-0.1-0.4-0.2-0.8-0.1-1.2c0-0.2,0.1-0.4,0.4-0.4c0.1,0,0.2,0,0.3,0c2.2,0,4.5,0,6.7,0c0.6,0,0.6,0,0.8,0.7c0.5,2.3,2.7,4,5.1,4.1
		c0.1,0,0.2,0,0.3,0c12.1,0,24.2,0,36.3,0c1.2,0,2.3-0.3,3.3-1c2.4-1.8,3-5.3,0.8-7.7c-1.1-1.2-2.4-1.7-4-1.7c-12.1,0-24.1,0-36.2,0
		c-3,0-5.9-0.8-8.3-2.6c-2.4-1.8-4.1-4.1-4.9-7.1c-1.2-4.2-0.5-8.1,2.1-11.6c2.3-3.2,5.5-4.9,9.4-5.4c0.6-0.1,1.1-0.1,1.7-0.1
		c12,0,24,0,36.1,0c1.6,0,3.2,0.2,4.8,0.8c4.2,1.6,7,4.5,8.4,8.8c0.3,0.8,0.4,1.7,0.5,2.6c0.1,0.6,0,0.7-0.6,0.7c-2.3,0-4.6,0-6.9,0
		c-0.5,0-0.5,0-0.6-0.5c-0.5-2.4-2.7-4.2-5.3-4.2c-12.2,0-24.3,0-36.5,0c-2.6,0-4.8,1.8-5.2,4.3c-0.4,2.3,0.8,4.8,3,5.7
		c0.8,0.3,1.5,0.5,2.4,0.5c12.2,0,24.3,0,36.5,0c3.7,0,6.8,1.3,9.4,3.8c2.3,2.2,3.6,4.9,3.9,8.1c0.4,5.6-1.7,10-6.6,12.9
		c-2,1.2-4.3,1.8-6.6,1.8C490.1,48.4,484,48.4,477.8,48.4z"/>
	<path class="st0" d="M180.6,48.4c-3,0-6,0-9,0c-3.2,0-6.3-0.6-9.3-1.9c-3.9-1.8-7.1-4.4-9.5-8c-2.2-3.2-3.4-6.7-3.8-10.5
		c-0.4-4,0.3-7.8,1.9-11.5c1-2.2,2.4-4.2,4-6c3.9-4.1,8.6-6.5,14.3-7.1c1-0.1,1.9-0.2,2.9-0.2c5.8,0,11.5,0,17.3,0
		c2.1,0,4.2,0.2,6.2,0.8c3.3,0.9,6.3,2.5,8.9,4.8c3.6,3.1,5.9,7,7.1,11.6c0.3,1.3,0.5,2.7,0.6,4.1c0.2,3.6-0.4,7-1.8,10.3
		c-1,2.3-2.3,4.4-4,6.3c-1.7,1.9-3.7,3.4-5.9,4.7c-2.7,1.5-5.6,2.4-8.7,2.7c-0.8,0.1-1.5,0.1-2.2,0.1
		C186.6,48.4,183.6,48.4,180.6,48.4z M180.6,40.3c3,0,6.1,0,9.1,0c0.8,0,1.6-0.1,2.4-0.2c2.8-0.5,5.3-1.7,7.4-3.7
		c1.1-1,2.1-2.2,2.8-3.5c1.3-2.3,1.9-4.8,1.9-7.5c-0.1-2.3-0.6-4.4-1.7-6.5c-0.8-1.6-1.9-2.9-3.3-4.1c-2.6-2.3-5.7-3.5-9.2-3.6
		c-6.3-0.1-12.5,0-18.8,0c-1.6,0-3.1,0.3-4.5,0.8c-2.2,0.8-4,2-5.6,3.6c-2.7,2.8-4,6.1-4.1,9.9c-0.1,2.8,0.7,5.5,2.2,7.9
		c1.4,2.3,3.4,4.1,5.8,5.3c2,1,4.2,1.5,6.5,1.6C174.6,40.4,177.6,40.3,180.6,40.3z"/>
	<path class="st0" d="M404.1,48.4c-3.1,0-6.2,0-9.3,0c-2.8,0-5.4-0.5-8-1.5c-2.7-1.1-5.1-2.6-7.2-4.6c-3.9-3.7-6.2-8.2-6.9-13.5
		c-0.8-5.8,0.5-11.1,3.8-15.9c2.6-3.8,6.1-6.5,10.3-8.2c2.3-0.9,4.7-1.4,7.2-1.5c2.3-0.1,4.6-0.1,7-0.1c4,0,8.1,0,12.1,0
		c2.3,0,4.5,0.3,6.7,1c2.5,0.8,4.9,2,7,3.5c2.5,1.9,4.6,4.3,6.2,7c1.8,3.1,2.7,6.5,2.9,10.2c0.2,4-0.6,7.8-2.5,11.3
		c-1,1.9-2.2,3.6-3.6,5.1c-1.9,2-4.1,3.6-6.6,4.9c-2.6,1.3-5.5,2-8.4,2.2c-0.2,0-0.4,0-0.6,0C410.9,48.4,407.5,48.4,404.1,48.4z
		 M404.2,11.3c-3,0-6.1,0-9.1,0c-1.7,0-3.3,0.3-4.8,0.8c-2.8,1-5.1,2.7-6.8,5c-1.8,2.4-2.8,5.1-2.9,8.2c-0.1,2.2,0.3,4.4,1.3,6.4
		c1.5,3.3,4,5.8,7.3,7.3c2,0.9,4.1,1.3,6.4,1.3c5.7,0,11.4,0,17,0c0.7,0,1.4,0,2-0.1c3.9-0.4,7.2-2,9.7-5c2.9-3.4,4.1-7.3,3.3-11.8
		c-0.6-3.6-2.3-6.6-5.1-8.9c-2.7-2.2-5.8-3.3-9.3-3.3C410.1,11.3,407.2,11.3,404.2,11.3z"/>
	<path class="st0" d="M361.6,30.2c0,5.9,0,11.7,0,17.6c0,0.2,0,0.3,0,0.5c0,0.6,0,0.6-0.5,0.6c-2.3,0-4.6,0-7,0
		c-0.5,0-0.5,0-0.5-0.5c0-0.2,0-0.4,0-0.5c0-11.4,0-22.8,0-34.1c0-0.3,0-0.6,0-0.9c-0.1-0.6-0.4-1.1-1-1.3c-0.6-0.2-1.1-0.1-1.6,0.4
		c-0.7,0.7-1.5,1.3-2.2,2c-1.9,1.8-3.8,3.5-5.7,5.3c-1.8,1.6-3.5,3.3-5.3,4.9c-1,1-2.1,2-3.4,2.7c-1.3,0.7-2.7,1-4.3,1.1
		c-1.8,0-3.4-0.3-5-1.2c-0.7-0.4-1.3-0.9-1.9-1.4c-1.4-1.3-2.7-2.6-4.1-3.9c-1.4-1.3-2.7-2.5-4.1-3.8c-1.3-1.2-2.5-2.4-3.8-3.5
		c-0.8-0.8-1.6-1.5-2.5-2.3c-0.5-0.4-1-0.6-1.7-0.3c-0.6,0.3-0.9,0.7-0.9,1.4c0,0.2,0,0.4,0,0.6c0,11.5,0,23,0,34.5
		c0,1,0.1,0.9-0.9,0.9c-2.1,0-4.2,0-6.4,0c-0.2,0-0.4,0-0.5,0c-0.2,0-0.3-0.1-0.3-0.3c0-0.2,0-0.3,0-0.5c0-11.8,0-23.6,0-35.4
		c0-3.3,1.5-5.9,4.2-7.8c1.4-1,2.9-1.5,4.6-1.6c2.6-0.2,4.9,0.5,6.8,2.1c0.8,0.7,1.6,1.4,2.4,2.2c1.9,1.8,3.8,3.5,5.7,5.3
		c0.9,0.9,1.9,1.8,2.8,2.6c1.3,1.2,2.6,2.5,3.9,3.7c0.9,0.8,1.7,0.7,2.5-0.1c2.1-2,4.3-4,6.4-6c1.5-1.4,3.1-2.9,4.6-4.3
		c1.1-1,2.2-2.1,3.3-3.1c1.6-1.4,3.5-2.2,5.7-2.4c2.6-0.2,4.9,0.5,6.8,2.1c2.3,1.9,3.5,4.3,3.5,7.3
		C361.6,18.5,361.6,24.3,361.6,30.2z"/>
	<path class="st0" d="M114,48.4c-4.6,0-9.2,0-13.8,0c-3.5,0-6.8-0.8-9.9-2.4c-4.1-2.1-7.2-5.1-9.5-9c-1.6-2.8-2.6-5.9-2.8-9.2
		c-0.3-3.1,0-6.1,1-9c1-3.2,2.7-6,5-8.5c1.9-2,4.1-3.7,6.6-4.9c2.4-1.2,4.9-1.9,7.5-2.1c1.1-0.1,2.2-0.2,3.2-0.2
		c8.8,0,17.5,0,26.3,0c2.1,0,4.2,0.4,6.1,1.4c2.8,1.4,4.9,3.6,6.3,6.5c0.6,1.4,1.1,2.9,1.1,4.5c0,0.5,0,0.5-0.4,0.5
		c-2.4,0-4.8,0-7.2,0c-0.4,0-0.5-0.2-0.6-0.6c-0.5-2.3-2.3-3.9-4.6-4.1c-0.2,0-0.4,0-0.6,0c-9.3,0-18.5,0-27.8,0
		c-2.8,0-5.4,0.9-7.7,2.5c-3.8,2.6-6,6.2-6.3,10.8c-0.4,6.1,2.2,10.7,7.4,13.9c1.8,1.1,3.8,1.6,5.8,1.8c0.6,0.1,1.3,0.1,1.9,0.1
		c8.9,0,17.7,0,26.6,0c2.4,0,4.8-1.6,5.4-4.2c0.1-0.4,0.2-0.5,0.6-0.5c2.4,0,4.8,0,7.2,0c0.4,0,0.4,0,0.4,0.4
		c-0.2,2.8-1.2,5.2-2.9,7.4c-2.3,2.9-5.4,4.5-9.1,4.9c-0.2,0-0.5,0-0.7,0C123.7,48.4,118.8,48.4,114,48.4z"/>
	<path class="st0" d="M2.5,25.4c0-1.1,0-2.3,0-3.4c0-0.5,0-0.5,0.5-0.6c2.9-0.2,5.4-1.5,7.5-3.5c1.7-1.6,3.2-3.3,4.8-5
		c1.8-2,3.7-4,5.9-5.6c2.4-1.7,4.9-3,7.8-3.7c2.1-0.5,4.3-0.6,6.5-0.5c3.3,0.2,6.3,1.1,9.1,2.7c1.4,0.8,2.7,1.8,3.9,2.8
		c1.9,1.6,3.5,3.4,5.1,5.3c1.4,1.6,2.9,3.2,4.6,4.6c2,1.7,4.3,2.7,7,2.9c0.5,0,0.5,0,0.5,0.5c0,2.4,0,4.7,0,7.1c0,0.2,0,0.5-0.4,0.5
		c-1.9-0.1-3.9-0.4-5.7-1c-2.5-0.9-4.8-2.2-6.8-3.9c-1.9-1.6-3.7-3.5-5.4-5.4c-1.4-1.6-2.8-3.1-4.4-4.5c-2.2-2-4.8-3.2-7.7-3.4
		c-3.8-0.3-7.2,0.7-10.2,3.3c-1.9,1.7-3.5,3.6-5.2,5.4c-1.9,2.1-3.8,4.1-6.1,5.7c-3,2.2-6.3,3.5-10,3.8c-0.3,0-0.6,0-0.9,0
		c-0.5,0-0.5,0-0.5-0.5C2.5,27.8,2.5,26.6,2.5,25.4z"/>
	<path class="st0" d="M2.5,44.3c0-1.1,0-2.3,0-3.4c0-0.5,0-0.6,0.5-0.6c1.6-0.1,3.2-0.4,4.8-0.7c3.1-0.7,5.9-2.1,8.6-3.7
		c2.3-1.5,4.4-3.2,6.4-5c1.5-1.3,2.8-2.8,4.2-4.2c0.9-0.9,1.7-1.8,2.7-2.7c0.8-0.7,1.6-1.4,2.6-1.7c1.9-0.6,3.7-0.3,5.2,1
		c1.3,1,2.4,2.1,3.5,3.3c0.8,0.8,1.6,1.6,2.4,2.4c2.3,2.3,4.8,4.5,7.5,6.4c3.2,2.2,6.7,3.8,10.6,4.6c1.2,0.2,2.5,0.4,3.7,0.5
		c0.5,0,0.5,0.1,0.5,0.5c0,2.3,0,4.7,0,7c0,0.5,0,0.5-0.5,0.5c-1.9,0-3.8-0.3-5.7-0.7c-4.1-0.9-8-2.5-11.5-4.7
		c-2.6-1.6-4.9-3.4-7.2-5.4c-1.7-1.5-3.3-3.2-4.9-4.8c-0.2-0.2-0.3-0.3-0.5-0.5c-0.8-0.7-1.7-0.7-2.5,0c-1.2,1.2-2.5,2.5-3.7,3.7
		c-2.8,2.7-5.9,5.2-9.3,7.2c-2.8,1.7-5.8,3-8.9,3.9c-2.1,0.6-4.2,1-6.4,1.1c-0.5,0-0.9,0.1-1.4,0.1c-0.7,0-0.7,0-0.7-0.7
		C2.5,46.6,2.5,45.4,2.5,44.3z"/>
	<path class="st0" d="M202.3,67c0,0.2,0.1,0.3,0.2,0.3c1.2,0.8,1.7,1.9,1.7,3.3c0,0.9-0.1,1.8-0.6,2.6c-0.8,1.3-2,2-3.5,2
		c-2.5,0.1-5,0-7.5,0c-0.6,0-0.6,0-0.6-0.6c0-1.6,0-3.3,0-4.9c0-3.1,0-6.1,0-9.2c0-0.2,0-0.4,0-0.5c0-0.3,0.1-0.4,0.4-0.4
		c0.2,0,0.4,0,0.5,0c2.1,0,4.2,0.1,6.3,0c2.2-0.1,4.8,1.6,4.3,5.1C203.5,65.6,203.1,66.4,202.3,67z M197.4,72.7c0.7,0,1.4,0,2.1,0
		c1.3,0,2.3-1.3,2-2.6c-0.2-1.1-1.1-1.8-2.3-1.8c-1.3,0-2.6,0-3.9,0c-0.5,0-0.5,0-0.5,0.5c0,1.2,0,2.3,0,3.5c0,0.5,0,0.5,0.5,0.5
		C195.9,72.7,196.6,72.7,197.4,72.7z M197.1,62c-0.6,0-1.3,0-1.9,0c-0.5,0-0.5,0-0.5,0.5c0,1,0,2,0,2.9c0,0.5,0,0.5,0.5,0.5
		c1.2,0,2.5,0,3.7,0c1.2,0,1.9-0.9,1.9-2.1c0-1.1-0.8-1.8-1.9-1.9C198.3,62,197.7,62,197.1,62z"/>
	<path class="st0" d="M311,66.5c1.1,0,2.1,0,3.2,0c0.6,0,0.6,0,0.6,0.6c0,2.1-0.4,4-1.7,5.7c-1.1,1.5-2.7,2.3-4.5,2.5
		c-1.9,0.3-3.7,0-5.3-0.9c-2-1.1-3.1-2.9-3.6-5.1c-0.4-1.9-0.3-3.7,0.4-5.5c1.1-2.5,3-4,5.7-4.5c1.7-0.3,3.4-0.1,5,0.6
		c1,0.5,1.8,1.2,2.5,2c0.3,0.4,0.3,0.4-0.1,0.7c-0.5,0.4-1,0.7-1.5,1.1c-0.3,0.2-0.5,0.2-0.7-0.1c-0.7-0.8-1.6-1.3-2.6-1.6
		c-2.7-0.7-5.9,0.8-6.3,4.5c-0.1,1.4,0.1,2.6,0.8,3.8c1.4,2.4,4.9,3,7.1,1.3c0.7-0.5,1.1-1.2,1.4-2.1c0.2-0.5,0.1-0.6-0.4-0.6
		c-1.1,0-2.2,0-3.3,0c-0.6,0-0.6,0-0.6-0.6c0-0.4,0-0.9,0-1.3c0-0.5,0-0.5,0.5-0.5C308.9,66.5,309.9,66.5,311,66.5z"/>
	<path class="st0" d="M140.9,66.5c1.1,0,2.2,0,3.3,0c0.5,0,0.5,0,0.5,0.5c0,2.3-0.5,4.4-2,6.1c-1,1.2-2.4,1.9-3.9,2.1
		c-2.5,0.4-4.8,0-6.8-1.7c-1.4-1.2-2.2-2.8-2.5-4.6c-0.3-1.6-0.2-3.3,0.4-4.8c1-2.6,2.9-4.2,5.6-4.7c1.6-0.3,3.2-0.2,4.8,0.5
		c1.1,0.5,2,1.2,2.8,2.1c0.3,0.4,0.3,0.4-0.1,0.7c-0.5,0.4-1,0.7-1.4,1.1c-0.3,0.2-0.5,0.2-0.7-0.1c-0.7-0.9-1.6-1.3-2.6-1.6
		c-2.2-0.5-5.1,0.4-6,3.4c-0.7,2.2-0.3,4.2,1.4,5.8c1.6,1.6,4.3,1.7,6.1,0.5c0.8-0.6,1.3-1.4,1.6-2.3c0.1-0.5,0.1-0.5-0.4-0.6
		c-1,0-1.9,0-2.9,0c-0.2,0-0.4,0-0.6,0c-0.5,0-0.5,0-0.5-0.5c0-0.5,0-1,0-1.5c0-0.5,0-0.5,0.5-0.5C138.6,66.5,139.7,66.5,140.9,66.5
		z"/>
	<path class="st0" d="M184.4,67.2c0,1.8-0.4,3.3-1.2,4.7c-1.2,1.9-2.8,3-5,3.4c-1.8,0.3-3.5,0.1-5.1-0.6c-1.7-0.8-2.9-2.1-3.6-3.8
		c-1-2.4-0.9-4.9,0.2-7.3c1-2.1,2.6-3.4,4.8-4c1.8-0.4,3.6-0.4,5.3,0.3c2.4,1,3.8,2.9,4.4,5.4C184.4,66,184.5,66.7,184.4,67.2z
		 M181.7,67.4c0-1.1-0.2-2.2-0.9-3.2c-1.1-1.7-2.8-2.3-4.8-2.2c-1.4,0.1-2.6,0.8-3.5,2c-1.3,1.9-1.4,3.8-0.5,5.8
		c1.4,3.2,5.8,3.7,8.1,1.4C181.3,70.2,181.7,68.9,181.7,67.4z"/>
	<path class="st0" d="M292.2,67.4c0,1.3-0.2,2.5-0.8,3.7c-0.9,2-2.4,3.4-4.6,4c-1.8,0.5-3.5,0.5-5.3-0.1c-2-0.7-3.5-2.1-4.3-4
		c-1-2.5-1-5,0.1-7.4c1.1-2.3,2.9-3.6,5.3-4.1c2-0.4,4-0.2,5.8,0.9c2.2,1.3,3.3,3.3,3.6,5.8c0,0.2,0,0.4,0.1,0.7
		C292.2,67,292.2,67.2,292.2,67.4z M279.4,67.8c0,1.7,0.8,3.3,2.7,4.3c1.8,0.9,4.2,0.7,5.7-0.6c2.1-1.8,2.2-5,1.1-7
		c-1.6-2.9-5.2-3.2-7.5-1.6C280,64.1,279.4,65.6,279.4,67.8z"/>
	<path class="st0" d="M339.6,75.5c-1.9,0-3.5-0.3-4.9-1.3c-0.8-0.5-1.4-1.2-1.8-2c-0.1-0.3-0.1-0.5,0.2-0.7c0.5-0.3,1-0.7,1.5-1.1
		c0.2-0.2,0.3-0.1,0.5,0.1c1.4,1.9,3.3,2.5,5.6,2.2c0.6-0.1,1.2-0.4,1.5-0.9c0.4-0.7,0.5-1.6-0.6-2.3c-0.6-0.4-1.3-0.6-2-0.8
		c-0.7-0.2-1.5-0.4-2.2-0.7c-0.8-0.2-1.5-0.6-2.2-1c-1.9-1.2-2.1-3.3-1.4-5c0.5-1.3,1.6-2,2.9-2.4c2-0.6,4-0.6,5.9,0.2
		c1,0.4,1.9,1.1,2.5,2c0.4,0.6,0.3,0.7-0.2,1c-0.4,0.3-0.9,0.5-1.3,0.8c-0.2,0.1-0.3,0.1-0.6-0.1c-1.4-1.5-3.1-1.9-5.1-1.6
		c-0.3,0.1-0.6,0.2-0.9,0.4c-0.8,0.7-0.8,1.6,0,2.2c0.5,0.4,1.2,0.7,1.9,0.9c1,0.3,2.1,0.6,3.1,1c0.8,0.3,1.6,0.7,2.3,1.3
		c1.4,1.3,1.5,3.1,0.8,4.7c-0.7,1.7-2.1,2.4-3.8,2.7C340.6,75.5,340,75.5,339.6,75.5z"/>
	<path class="st0" d="M410.1,75.5c-1.7,0-3.1-0.3-4.4-1.1c-0.9-0.6-1.7-1.3-2.2-2.3c-0.1-0.3-0.1-0.4,0.1-0.6c0.5-0.4,1-0.7,1.5-1.1
		c0.3-0.2,0.4-0.1,0.6,0.1c1.4,1.8,3.3,2.5,5.6,2.1c0.8-0.1,1.4-0.5,1.7-1.4c0.2-0.8,0-1.4-0.7-1.8c-0.5-0.3-1.1-0.6-1.7-0.7
		c-1.1-0.3-2.1-0.6-3.2-1c-0.9-0.3-1.6-0.7-2.3-1.3c-1.6-1.4-1.2-4.3-0.1-5.4c0.7-0.7,1.5-1.3,2.6-1.5c2.1-0.5,4.2-0.4,6.2,0.6
		c0.9,0.5,1.6,1.1,2.1,2c0.2,0.4,0.2,0.5-0.2,0.7c-0.5,0.3-1,0.6-1.5,0.9c-0.2,0.2-0.4,0.1-0.6-0.1c-1.4-1.5-3.1-1.9-5-1.5
		c-0.9,0.2-1.4,0.8-1.4,1.5c0,0.3,0.1,0.6,0.3,0.9c0.3,0.4,0.7,0.6,1.2,0.8c1.1,0.4,2.3,0.7,3.4,1.1c0.8,0.3,1.5,0.6,2.2,1.1
		c2,1.4,2.4,4,1,5.9c-0.9,1.3-2.3,1.8-3.8,2C411,75.5,410.5,75.5,410.1,75.5z"/>
	<path class="st0" d="M223.8,75.2c-1.5,0-1.2,0.3-1.8-1.2c-0.2-0.5-0.4-0.9-0.6-1.4c-0.1-0.3-0.3-0.5-0.6-0.5c-1.9,0-3.7,0-5.6,0
		c-0.3,0-0.5,0.1-0.6,0.4c-0.2,0.7-0.5,1.4-0.8,2.1c-0.1,0.4-0.3,0.5-0.7,0.5c-0.6,0-1.2,0-1.8,0c-0.5,0-0.5-0.1-0.3-0.5
		c0.8-2,1.6-3.9,2.4-5.9c1.1-2.8,2.2-5.5,3.3-8.3c0-0.1,0-0.1,0.1-0.2c0.4-0.8,0.2-0.7,1.1-0.7c0.1,0,0.2,0,0.3,0
		c1.2,0,0.9,0,1.3,0.9c1.9,4.7,3.8,9.5,5.7,14.2c0.2,0.5,0.2,0.6-0.4,0.6c0,0,0,0-0.1,0C224.4,75.2,224.1,75.2,223.8,75.2z M218,64
		c-0.1,0.2-0.2,0.2-0.2,0.3c-0.6,1.6-1.3,3.2-1.9,4.9c-0.2,0.5-0.1,0.5,0.4,0.5c1.1,0,2.3,0,3.4,0c0.5,0,0.6-0.1,0.4-0.6
		c-0.4-1-0.7-1.9-1.1-2.9C218.6,65.5,218.4,64.8,218,64z"/>
	<path class="st0" d="M382.4,67.2c-0.1-1.3,0.3-2.6,0.9-3.9c0.9-1.7,2.1-2.9,3.9-3.5c2.6-0.9,5.2-0.8,7.5,0.8
		c0.6,0.4,1.1,0.9,1.5,1.4c0.2,0.2,0.2,0.4-0.1,0.7c-0.5,0.3-1,0.7-1.4,1.1c-0.3,0.2-0.5,0.2-0.7-0.1c-0.4-0.4-0.8-0.8-1.3-1.1
		c-3.5-1.9-7.5,0.4-7.6,4.4c0,1.2,0.2,2.3,0.8,3.4c1.3,2,4.1,2.9,6.2,1.9c0.7-0.3,1.4-0.8,1.9-1.4c0.2-0.3,0.4-0.2,0.6-0.1
		c0.5,0.4,1,0.8,1.5,1.1c0.4,0.3,0.4,0.3,0.1,0.7c-0.7,0.9-1.6,1.6-2.6,2.1c-2.6,1.2-6.6,1-9.1-1.5c-1.4-1.5-2.1-3.2-2.2-5.2
		C382.4,67.8,382.4,67.5,382.4,67.2z"/>
	<path class="st0" d="M357,68.6c0-1.9,0-3.8,0-5.8c0-0.8,0-0.8-0.9-0.8c-1.1,0-2.2,0-3.3,0c-0.6,0-0.6,0-0.6-0.6c0-0.4,0-0.9,0-1.3
		c0-0.6,0-0.6,0.6-0.6c0.1,0,0.2,0,0.3,0c3.5,0,7,0,10.5,0c0.1,0,0.3,0,0.4,0c0.3,0,0.5,0.1,0.5,0.5c0,0.5,0,1,0,1.5
		c0,0.4,0,0.5-0.5,0.5c-1,0-2.1,0-3.1,0c-1.4,0-1.2-0.1-1.2,1.2c0,3.7,0,7.3,0,11c0,0.1,0,0.3,0,0.4c0,0.6,0,0.6-0.6,0.6
		c-0.5,0-1,0-1.5,0c-0.6,0-0.6,0-0.6-0.6C357,72.6,357,70.6,357,68.6z"/>
	<path class="st0" d="M260.1,67.3c0-2.3,0-4.5,0-6.8c0-0.2,0-0.4,0-0.5c0-0.3,0.1-0.4,0.4-0.4c0.6,0,1.2,0,1.9,0
		c0.3,0,0.4,0.1,0.4,0.4c0,0.2,0,0.4,0,0.5c0,3.7,0,7.3,0,11c0,0.1,0,0.3,0,0.4c0,0.9,0,0.9,0.8,0.9c2,0,3.9,0,5.9,0
		c0.1,0,0.3,0,0.4,0c0.5,0,0.5,0,0.5,0.5c0,0.5,0,1,0,1.5c0,0.3-0.2,0.5-0.5,0.5c-0.1,0-0.2,0-0.3,0c-2.9,0-5.8,0-8.7,0
		c-0.1,0-0.2,0-0.3,0c-0.5,0-0.5-0.1-0.5-0.5c0-0.2,0-0.3,0-0.5C260.1,71.9,260.1,69.6,260.1,67.3z"/>
	<path class="st0" d="M152.3,67.3c0-2.3,0-4.6,0-6.8c0-0.2,0-0.4,0-0.5c0-0.3,0.1-0.4,0.4-0.4c0.6,0,1.3,0,1.9,0
		c0.2,0,0.4,0.1,0.4,0.4c0,0.2,0,0.4,0,0.6c0,3.7,0,7.5,0,11.2c0,0.2,0,0.4,0,0.5c0,0.4,0.1,0.5,0.5,0.5c1.4,0,2.9,0,4.3,0
		c0.8,0,1.5,0,2.3,0c0.4,0,0.5,0.1,0.5,0.5c0,0.5,0,1.1,0,1.6c0,0.3-0.1,0.4-0.4,0.4c-0.1,0-0.3,0-0.4,0c-2.9,0-5.8,0-8.7,0
		c-0.1,0-0.3,0-0.4,0c-0.3,0-0.4-0.1-0.4-0.5c0-0.7,0-1.4,0-2.1C152.3,70.9,152.3,69.1,152.3,67.3z"/>
	<path class="st0" d="M232.3,67.4c0-2.3,0-4.6,0-7c0-0.2,0-0.4,0-0.5c0-0.2,0.1-0.4,0.4-0.4c0.6,0,1.3,0,1.9,0
		c0.2,0,0.3,0.1,0.3,0.3c0,0.2,0,0.4,0,0.5c0,3.8,0,7.5,0,11.3c0,0.1,0,0.3,0,0.4c0,0.6,0,0.6,0.6,0.6c2.1,0,4.1,0,6.2,0
		c0.2,0,0.4,0,0.5,0c0.2,0,0.3,0.1,0.3,0.3c0,0.6,0,1.2,0,1.8c0,0.2-0.1,0.3-0.3,0.3c-0.1,0-0.3,0-0.4,0c-3,0-5.9,0-8.9,0
		c-0.1,0-0.3,0-0.4,0c-0.2,0-0.3-0.1-0.3-0.3c0-0.2,0-0.4,0-0.5C232.3,72,232.3,69.7,232.3,67.4z"/>
	<path class="st0" d="M56.3,3.1c0.2-0.1,0.4-0.1,0.6-0.1c2.7,0,5.3,0,8,0c0.1,0,0.3,0,0.4,0c0.3,0,0.4,0.1,0.4,0.4
		c0,0.1,0,0.2,0,0.3c0,2,0,4.1,0,6.1c0,0.1,0,0.2,0,0.3c0,0.3-0.2,0.4-0.5,0.4c-0.7-0.1-1.4-0.4-2-0.7c-0.7-0.4-1.4-1-2-1.6
		c-1.6-1.6-3.2-3.2-4.7-4.8C56.4,3.4,56.3,3.3,56.3,3.1z"/>
	<path class="st0" d="M12,3.2c-0.5,0.6-1,1-1.5,1.5c-1,1.1-2.1,2.2-3.1,3.2c-0.9,0.9-1.9,1.7-3.1,2.3c-0.4,0.2-0.9,0.3-1.3,0.4
		c-0.3,0-0.4,0-0.4-0.3c0-0.2,0-0.3,0-0.5c0-2,0-4,0-6c0-0.1,0-0.1,0-0.2c0-0.6,0-0.6,0.6-0.6c0.4,0,0.9,0,1.3,0c2.2,0,4.5,0,6.7,0
		C11.3,3.1,11.6,3,12,3.2z"/>
	<path class="st0" d="M325.3,67.4c0,2.3,0,4.6,0,6.9c0,0.2,0,0.3,0,0.5c0,0.3-0.1,0.4-0.4,0.4c-0.6,0-1.2,0-1.9,0
		c-0.3,0-0.4-0.2-0.4-0.5c0-0.2,0-0.3,0-0.5c0-4.6,0-9.2,0-13.8c0-0.1,0-0.1,0-0.2c0-0.7,0-0.7,0.7-0.7c0.5,0,1,0,1.5,0
		c0.5,0,0.5,0,0.5,0.6c0,0.4,0,0.8,0,1.2C325.3,63.3,325.3,65.4,325.3,67.4z"/>
	<path class="st0" d="M372,67.4c0-2.3,0-4.6,0-7c0-0.2,0-0.3,0-0.5c0-0.3,0.1-0.4,0.4-0.4c0.6,0,1.2,0,1.8,0c0.3,0,0.4,0.1,0.4,0.4
		c0,0.2,0,0.3,0,0.5c0,4.6,0,9.3,0,13.9c0,0,0,0.1,0,0.1c0,0.7,0,0.7-0.7,0.7c-0.5,0-0.9,0-1.4,0c-0.5,0-0.5-0.1-0.5-0.5
		c0-0.6,0-1.2,0-1.8C372,71.1,372,69.2,372,67.4z"/>
</g>
</svg>
