<svg width="512" height="131" viewBox="0 0 512 131" fill="none" xmlns="http://www.w3.org/2000/svg">
<rect width="512" height="130.921" fill="white"/>
<path fill-rule="evenodd" clip-rule="evenodd" d="M464.886 69.8574C491.21 69.8574 506.712 80.2482 506.712 97.991C506.712 115.734 491.21 126.125 464.886 126.125C438.561 126.125 423.059 115.734 423.059 97.991C423.059 80.2482 438.561 69.8574 464.886 69.8574ZM464.886 81.1305C446.946 81.1305 437.197 87.5022 437.197 98.089C437.197 108.676 447.044 115.048 464.886 115.048C482.825 115.048 492.575 108.676 492.575 98.089C492.575 87.4041 482.825 81.1305 464.886 81.1305Z" fill="#000929"/>
<path fill-rule="evenodd" clip-rule="evenodd" d="M244.445 71.0337C268.722 71.0337 283.249 81.0325 283.249 98.089C283.249 115.146 268.624 125.046 244.933 125.046H206.422V71.0337H244.445ZM220.461 113.871H243.763C260.24 113.773 268.917 109.166 268.917 98.089C268.917 86.9141 260.337 82.3068 243.763 82.3068H220.461V113.871Z" fill="#000929"/>
<path d="M136.419 82.2087L177.562 124.85H160.208L151.823 116.028L135.541 98.7752L119.844 82.2087H114.092V124.85H100.052V71.2298H125.889L136.419 82.2087Z" fill="#000929"/>
<path d="M357.347 82.2087L398.49 124.85H381.136L372.751 116.028H372.849L356.567 98.7752H356.469L340.772 82.2087H335.02V124.85H321.078V71.2298H346.817L357.347 82.2087Z" fill="#000929"/>
<path fill-rule="evenodd" clip-rule="evenodd" d="M85.233 71.2298V124.752H71.1934V115.244H43.4068V105.343L24.9799 124.752H7.62549L59.2988 71.2298H85.233ZM65.3436 82.2087L45.5518 103.088H71.0959V82.2087H65.3436Z" fill="#000929"/>
<path d="M191.602 124.752H177.562V71.2298H191.602V124.752Z" fill="#000929"/>
<path d="M306.161 124.752H292.121V71.2298H306.161V124.752Z" fill="#000929"/>
<path d="M412.53 124.752H398.49V71.2298H412.53V124.752Z" fill="#000929"/>
<path d="M118.756 32.3701C118.756 35.4066 118.164 38.0172 116.979 40.2019C115.794 42.3497 114.091 44.016 111.869 45.201C109.647 46.3489 106.925 46.9229 103.704 46.9229C98.9639 46.9229 95.3165 45.6453 92.7614 43.0903C90.2434 40.4982 88.9844 36.8878 88.9844 32.259V6.70838H92.1504V32.259C92.1504 36.1101 93.1502 39.054 95.1499 41.0906C97.1495 43.0903 100.056 44.0901 103.87 44.0901C106.388 44.0901 108.518 43.6457 110.258 42.757C111.998 41.8312 113.313 40.5167 114.202 38.8133C115.127 37.0729 115.59 34.9992 115.59 32.5923V6.70838H118.756V32.3701Z" fill="#000929"/>
<path d="M141.958 16.2621C145.327 16.2621 147.901 17.1323 149.678 18.8727C151.456 20.6131 152.345 23.3533 152.345 27.0933V46.3674H149.234V27.26C149.234 24.4087 148.586 22.3165 147.29 20.9834C145.994 19.6503 144.087 18.9838 141.569 18.9838C138.347 18.9838 135.922 19.9281 134.292 21.8166C132.663 23.7051 131.849 26.5194 131.849 30.2594V46.3674H128.738V16.8175H131.238L131.737 21.9277H131.904C132.459 20.8538 133.2 19.891 134.126 19.0393C135.052 18.1877 136.162 17.5211 137.459 17.0397C138.792 16.5213 140.291 16.2621 141.958 16.2621Z" fill="#000929"/>
<path d="M172.214 16.3176C175.547 16.3176 178.028 17.1323 179.657 18.7616C181.287 20.3909 182.101 22.983 182.101 26.5379V46.3674H179.713L179.158 41.3684H178.991C178.287 42.4793 177.473 43.4606 176.547 44.3122C175.658 45.1269 174.566 45.7749 173.27 46.2563C172.011 46.7007 170.455 46.9229 168.604 46.9229C166.753 46.9229 165.142 46.6081 163.772 45.9786C162.401 45.3121 161.346 44.3678 160.606 43.1458C159.865 41.9238 159.495 40.4241 159.495 38.6467C159.495 35.7213 160.698 33.4995 163.105 31.9813C165.512 30.426 169.011 29.5373 173.603 29.3151L178.991 29.093V26.9823C178.991 24.0569 178.398 22.0017 177.213 20.8168C176.066 19.5948 174.344 18.9838 172.048 18.9838C170.53 18.9838 169.067 19.1875 167.66 19.5948C166.29 19.9651 164.901 20.502 163.494 21.2056L162.494 18.7061C163.864 18.0025 165.382 17.4285 167.049 16.9842C168.715 16.5398 170.437 16.3176 172.214 16.3176ZM173.936 31.648C170.196 31.8332 167.401 32.4997 165.549 33.6476C163.698 34.7585 162.772 36.4434 162.772 38.7022C162.772 40.5167 163.346 41.9053 164.494 42.8681C165.642 43.7938 167.197 44.2567 169.159 44.2567C172.307 44.2567 174.714 43.3865 176.38 41.6461C178.084 39.9057 178.954 37.4617 178.991 34.3142V31.4258L173.936 31.648Z" fill="#000929"/>
<path d="M217.687 16.2621C220.242 16.2621 222.353 16.8546 224.019 18.0395C225.722 19.1875 227 20.7797 227.852 22.8164C228.74 24.853 229.185 27.2044 229.185 29.8706V31.9813H208.078C208.078 35.9435 208.985 38.9614 210.799 41.0351C212.651 43.1088 215.262 44.1456 218.631 44.1456C220.483 44.1456 222.094 43.9975 223.464 43.7013C224.834 43.405 226.333 42.8866 227.963 42.146V45.0343C226.482 45.7009 225.019 46.1823 223.575 46.4785C222.131 46.7747 220.446 46.9229 218.52 46.9229C215.595 46.9229 213.095 46.3119 211.022 45.0899C208.985 43.8679 207.43 42.1275 206.356 39.8687C205.319 37.5728 204.801 34.9067 204.801 31.8702C204.801 28.8337 205.3 26.1491 206.3 23.8162C207.3 21.4833 208.763 19.6503 210.688 18.3173C212.614 16.9472 214.947 16.2621 217.687 16.2621ZM217.687 18.9283C214.947 18.9283 212.744 19.8355 211.077 21.6499C209.411 23.4274 208.43 26.001 208.133 29.3707H225.908C225.908 27.297 225.611 25.4825 225.019 23.9273C224.426 22.372 223.519 21.15 222.297 20.2613C221.112 19.3726 219.576 18.9283 217.687 18.9283Z" fill="#000929"/>
<path d="M267.997 16.2621C270.96 16.2621 273.255 17.0953 274.885 18.7616C276.551 20.428 277.384 23.0571 277.384 26.649V46.3674H274.218V26.7601C274.218 24.131 273.626 22.1869 272.441 20.9279C271.256 19.6318 269.645 18.9838 267.608 18.9838C264.757 18.9838 262.572 19.817 261.054 21.4833C259.573 23.1126 258.832 25.6492 258.832 29.093V46.3674H255.666V26.7601C255.666 24.9826 255.388 23.52 254.833 22.372C254.315 21.2241 253.556 20.3724 252.556 19.817C251.593 19.2615 250.408 18.9838 249.001 18.9838C247.149 18.9838 245.576 19.3726 244.28 20.1502C242.983 20.9279 241.984 22.0943 241.28 23.6496C240.614 25.2048 240.28 27.1859 240.28 29.5929V46.3674H237.17V16.8175H239.669L240.169 21.5389H240.336C240.854 20.5391 241.521 19.6503 242.335 18.8727C243.187 18.0951 244.205 17.4656 245.39 16.9842C246.575 16.5028 247.927 16.2621 249.445 16.2621C251.63 16.2621 253.463 16.725 254.944 17.6507C256.425 18.5765 257.462 19.9651 258.055 21.8166H258.277C259.128 20.0391 260.388 18.669 262.054 17.7063C263.757 16.7435 265.738 16.2621 267.997 16.2621Z" fill="#000929"/>
<path d="M299.968 16.2621C303.745 16.2621 306.689 17.5396 308.799 20.0947C310.947 22.6498 312.021 26.4268 312.021 31.4258C312.021 34.7585 311.521 37.5913 310.521 39.9242C309.521 42.2201 308.096 43.9605 306.244 45.1454C304.43 46.3304 302.245 46.9229 299.69 46.9229C297.949 46.9229 296.431 46.6636 295.135 46.1452C293.839 45.6268 292.765 44.9418 291.914 44.0901C291.062 43.2384 290.395 42.2941 289.914 41.2573H289.692C289.766 42.183 289.821 43.2014 289.858 44.3122C289.895 45.3861 289.914 46.3859 289.914 47.3117V59.476H286.748V16.8175H289.359L289.747 22.372H289.914C290.395 21.2982 291.08 20.2984 291.969 19.3726C292.858 18.4469 293.95 17.7063 295.246 17.1508C296.579 16.5583 298.153 16.2621 299.968 16.2621ZM299.523 18.9838C297.338 18.9838 295.543 19.4467 294.135 20.3724C292.728 21.2982 291.673 22.6683 290.969 24.4827C290.266 26.2602 289.914 28.4635 289.914 31.0926V31.648C289.914 34.4253 290.247 36.7581 290.914 38.6467C291.617 40.4982 292.654 41.8868 294.024 42.8125C295.431 43.7383 297.19 44.2012 299.301 44.2012C301.375 44.2012 303.097 43.7013 304.467 42.7014C305.874 41.6646 306.929 40.2019 307.633 38.3134C308.373 36.3878 308.744 34.092 308.744 31.4258C308.744 27.3896 307.985 24.3161 306.466 22.2054C304.948 20.0577 302.634 18.9838 299.523 18.9838Z" fill="#000929"/>
<path d="M332.108 16.3176C332.848 16.3176 333.552 16.3732 334.218 16.4843C334.922 16.5583 335.551 16.6694 336.107 16.8175L335.663 19.7059C335.07 19.5578 334.478 19.4467 333.885 19.3726C333.293 19.2615 332.645 19.206 331.941 19.206C330.608 19.206 329.404 19.4652 328.331 19.9836C327.257 20.502 326.331 21.2426 325.553 22.2054C324.776 23.1682 324.183 24.3161 323.776 25.6492C323.369 26.9823 323.165 28.482 323.165 30.1483V46.3674H319.999V16.8175H322.665L322.998 22.372H323.165C323.646 21.2241 324.294 20.2058 325.109 19.3171C325.961 18.3913 326.979 17.6692 328.164 17.1508C329.349 16.5954 330.663 16.3176 332.108 16.3176Z" fill="#000929"/>
<path d="M351.938 16.2621C354.494 16.2621 356.604 16.8546 358.271 18.0395C359.974 19.1875 361.251 20.7797 362.103 22.8164C362.992 24.853 363.436 27.2044 363.436 29.8706V31.9813H342.329C342.329 35.9435 343.236 38.9614 345.051 41.0351C346.902 43.1088 349.513 44.1456 352.883 44.1456C354.734 44.1456 356.345 43.9975 357.715 43.7013C359.085 43.405 360.585 42.8866 362.214 42.146V45.0343C360.733 45.7009 359.27 46.1823 357.826 46.4785C356.382 46.7747 354.697 46.9229 352.772 46.9229C349.846 46.9229 347.347 46.3119 345.273 45.0899C343.236 43.8679 341.681 42.1275 340.607 39.8687C339.57 37.5728 339.052 34.9067 339.052 31.8702C339.052 28.8337 339.552 26.1491 340.552 23.8162C341.552 21.4833 343.014 19.6503 344.94 18.3173C346.865 16.9472 349.198 16.2621 351.938 16.2621ZM351.938 18.9283C349.198 18.9283 346.995 19.8355 345.329 21.6499C343.662 23.4274 342.681 26.001 342.385 29.3707H360.159C360.159 27.297 359.863 25.4825 359.27 23.9273C358.678 22.372 357.771 21.15 356.549 20.2613C355.364 19.3726 353.827 18.9283 351.938 18.9283Z" fill="#000929"/>
<path d="M389.973 38.5356C389.973 40.313 389.529 41.8312 388.64 43.0903C387.751 44.3493 386.455 45.3121 384.752 45.9786C383.049 46.6081 380.975 46.9229 378.531 46.9229C376.494 46.9229 374.68 46.7377 373.088 46.3674C371.495 45.9971 370.144 45.5527 369.033 45.0343V41.9794C370.366 42.6459 371.866 43.2013 373.532 43.6457C375.198 44.053 376.883 44.2567 378.587 44.2567C381.549 44.2567 383.678 43.7753 384.974 42.8125C386.27 41.8127 386.918 40.4611 386.918 38.7578C386.918 37.6469 386.604 36.7396 385.974 36.0361C385.382 35.2955 384.474 34.6474 383.252 34.092C382.067 33.4995 380.586 32.907 378.809 32.3146C376.994 31.6851 375.383 31.0555 373.976 30.426C372.569 29.7595 371.477 28.9263 370.699 27.9265C369.922 26.9267 369.533 25.5566 369.533 23.8162C369.533 21.4463 370.495 19.5948 372.421 18.2617C374.347 16.9286 376.92 16.2621 380.142 16.2621C381.919 16.2621 383.567 16.4287 385.085 16.762C386.641 17.0953 388.048 17.5396 389.307 18.0951L388.196 20.7057C387.455 20.3724 386.622 20.0762 385.696 19.817C384.771 19.5207 383.826 19.2985 382.863 19.1504C381.901 19.0023 380.938 18.9283 379.975 18.9283C377.642 18.9283 375.828 19.3356 374.532 20.1502C373.236 20.9649 372.588 22.1499 372.588 23.7051C372.588 24.8901 372.884 25.8343 373.476 26.5379C374.106 27.2044 375.013 27.7784 376.198 28.2598C377.42 28.7412 378.883 29.2966 380.586 29.9261C382.327 30.5186 383.9 31.1481 385.307 31.8147C386.752 32.4812 387.881 33.3329 388.696 34.3697C389.547 35.4066 389.973 36.7952 389.973 38.5356Z" fill="#000929"/>
<path d="M407.846 16.3176C411.179 16.3176 413.66 17.1323 415.289 18.7616C416.918 20.3909 417.733 22.983 417.733 26.5379V46.3674H415.345L414.789 41.3684H414.623C413.919 42.4793 413.104 43.4606 412.179 44.3122C411.29 45.1269 410.197 45.7749 408.901 46.2563C407.642 46.7007 406.087 46.9229 404.236 46.9229C402.384 46.9229 400.773 46.6081 399.403 45.9786C398.033 45.3121 396.978 44.3678 396.237 43.1458C395.497 41.9238 395.126 40.4241 395.126 38.6467C395.126 35.7213 396.33 33.4995 398.737 31.9813C401.144 30.426 404.643 29.5373 409.235 29.3151L414.623 29.093V26.9823C414.623 24.0569 414.03 22.0017 412.845 20.8168C411.697 19.5948 409.975 18.9838 407.679 18.9838C406.161 18.9838 404.699 19.1875 403.291 19.5948C401.921 19.9651 400.533 20.502 399.126 21.2056L398.126 18.7061C399.496 18.0025 401.014 17.4285 402.68 16.9842C404.347 16.5398 406.069 16.3176 407.846 16.3176ZM409.568 31.648C405.828 31.8332 403.032 32.4997 401.181 33.6476C399.329 34.7585 398.403 36.4434 398.403 38.7022C398.403 40.5167 398.977 41.9053 400.125 42.8681C401.273 43.7938 402.829 44.2567 404.791 44.2567C407.939 44.2567 410.346 43.3865 412.012 41.6461C413.715 39.9057 414.586 37.4617 414.623 34.3142V31.4258L409.568 31.648Z" fill="#000929"/>
<path d="M452.763 46.9229C448.801 46.9229 445.746 45.6638 443.598 43.1458C441.488 40.5907 440.432 36.8507 440.432 31.9257C440.432 26.8156 441.543 22.9275 443.765 20.2613C446.024 17.5952 449.116 16.2621 453.041 16.2621C454.707 16.2621 456.151 16.5213 457.373 17.0397C458.595 17.5211 459.632 18.1877 460.484 19.0393C461.373 19.891 462.058 20.8538 462.539 21.9277H462.761C462.724 21.039 462.669 20.0762 462.595 19.0393C462.558 17.9655 462.539 17.0027 462.539 16.151V4.15332H465.705V46.3674H463.15L462.706 41.2017H462.539C462.021 42.2386 461.336 43.2014 460.484 44.0901C459.632 44.9418 458.577 45.6268 457.318 46.1452C456.059 46.6636 454.541 46.9229 452.763 46.9229ZM453.152 44.2012C456.596 44.2012 459.021 43.1643 460.428 41.0906C461.873 39.017 462.595 36.0175 462.595 32.0924V31.5925C462.595 27.5192 461.873 24.4087 460.428 22.2609C459.021 20.0762 456.67 18.9838 453.374 18.9838C450.19 18.9838 447.783 20.1132 446.153 22.372C444.524 24.5938 443.709 27.7969 443.709 31.9813C443.709 35.9805 444.487 39.017 446.042 41.0906C447.598 43.1643 449.967 44.2012 453.152 44.2012Z" fill="#000929"/>
<path d="M486.57 16.2621C489.125 16.2621 491.235 16.8546 492.902 18.0395C494.605 19.1875 495.883 20.7797 496.734 22.8164C497.623 24.853 498.067 27.2044 498.067 29.8706V31.9813H476.96C476.96 35.9435 477.868 38.9614 479.682 41.0351C481.534 43.1088 484.144 44.1456 487.514 44.1456C489.365 44.1456 490.976 43.9975 492.346 43.7013C493.716 43.405 495.216 42.8866 496.845 42.146V45.0343C495.364 45.7009 493.902 46.1823 492.457 46.4785C491.013 46.7747 489.328 46.9229 487.403 46.9229C484.477 46.9229 481.978 46.3119 479.904 45.0899C477.868 43.8679 476.312 42.1275 475.238 39.8687C474.202 37.5728 473.683 34.9067 473.683 31.8702C473.683 28.8337 474.183 26.1491 475.183 23.8162C476.183 21.4833 477.645 19.6503 479.571 18.3173C481.497 16.9472 483.829 16.2621 486.57 16.2621ZM486.57 18.9283C483.829 18.9283 481.626 19.8355 479.96 21.6499C478.293 23.4274 477.312 26.001 477.016 29.3707H494.79C494.79 27.297 494.494 25.4825 493.902 23.9273C493.309 22.372 492.402 21.15 491.18 20.2613C489.995 19.3726 488.458 18.9283 486.57 18.9283Z" fill="#000929"/>
</svg>
