<svg width="120" height="30" viewBox="0 0 120 30" fill="none" xmlns="http://www.w3.org/2000/svg">
<path d="M25.9016 13.1723L22.6981 17.0926L17.5976 10.8792L12.4969 17.0926L9.29332 13.1725L17.5976 3L25.9016 13.1723Z" fill="#191F42"/>
<path d="M33.3461 22.292L29.7988 26.6376H17.5976L21.6712 21.6528H26.4416L24.051 18.7405L27.2507 14.825L33.3461 22.292Z" fill="#D61F2C"/>
<path d="M2 22.292L5.54734 26.6376H17.7485L13.675 21.6528H8.90451L11.2952 18.7405L8.09548 14.825L2 22.292Z" fill="#249FD3"/>
<path fill-rule="evenodd" clip-rule="evenodd" d="M76.2203 8.44689C77.0115 8.45842 77.6699 8.5506 78.1954 8.72354C79.0905 9.01754 79.8152 9.5567 80.3696 10.3407C80.8142 10.9748 81.1173 11.6608 81.279 12.3986C81.4407 13.1365 81.5216 13.8398 81.5216 14.5085C81.5216 16.2033 81.1809 17.6386 80.4994 18.8146C79.5755 20.3999 78.1491 21.1925 76.2203 21.1925H70.7197V8.44689H76.2203ZM73.5858 18.5002H75.816C76.9572 18.5002 77.7531 17.941 78.2033 16.8223C78.4493 16.2083 78.5722 15.4771 78.5722 14.629C78.5722 13.4583 78.3864 12.5608 78.0148 11.9364C77.6483 11.3068 76.9153 10.9919 75.816 10.9919H73.5858V18.5002Z" fill="#00082D"/>
<path d="M63.8983 15.9552V8.44689H66.9759V21.1726H63.1491L58.9208 13.919V21.1726H55.8435V8.44689H59.7125L63.8983 15.9552Z" fill="#00082D"/>
<path d="M87.9489 21.1726H84.702V8.44689H87.9489V21.1726Z" fill="#00082D"/>
<path d="M99.6153 15.9552V8.44689H102.693V21.1726H98.866L94.6378 13.919V21.1726H91.5602V8.44689H95.4295L99.6153 15.9552Z" fill="#00082D"/>
<path fill-rule="evenodd" clip-rule="evenodd" d="M111.743 8.1925C113.61 8.19253 115.037 8.66951 116.023 9.62353C117.341 10.7496 118 12.4359 118 14.6824C118 16.8846 117.341 18.5711 116.023 19.7416C115.037 20.6956 113.61 21.1726 111.743 21.1726C109.875 21.1726 108.448 20.6957 107.461 19.7416C106.138 18.5711 105.476 16.8846 105.476 14.6824C105.476 12.4359 106.138 10.7496 107.461 9.62353C108.448 8.66942 109.875 8.1925 111.743 8.1925ZM111.749 10.7375C110.829 10.7375 110.094 11.0796 109.545 11.7637C108.997 12.4478 108.723 13.4207 108.723 14.6824C108.723 15.9441 108.997 16.9171 109.545 17.6011C110.094 18.2853 110.829 18.6276 111.749 18.6276C112.67 18.6276 113.399 18.2852 113.938 17.6011C114.481 16.917 114.753 15.9442 114.753 14.6824C114.753 13.4258 114.481 12.4555 113.938 11.7714C113.399 11.0823 112.67 10.7375 111.749 10.7375Z" fill="#00082D"/>
<path d="M53.5565 21.0729H50.1995L47.2696 11.75L44.2531 21.0729H41L45.5563 8.32697H49.0348L53.5565 21.0729Z" fill="#00082D"/>
</svg>
