<svg width="24" height="24" viewBox="0 0 24 24" fill="none" xmlns="http://www.w3.org/2000/svg">
<g clip-path="url(#clip0_10_24)">
<path d="M7.10994 0.999973C7.83443 0.9952 8.53605 1.25303 9.08553 1.72556C9.56842 2.14085 9.90553 2.69701 10.0504 3.31247L10.1002 3.58005L10.1012 3.58884C10.2178 4.47317 10.4341 5.34193 10.7457 6.17771C10.9475 6.71458 10.9913 7.29841 10.8717 7.85935C10.752 8.42025 10.4741 8.93493 10.0709 9.34275L9.35116 10.0625C10.527 11.9073 12.0923 13.4714 13.9371 14.6474L14.6568 13.9287C15.0646 13.5255 15.5794 13.2476 16.1402 13.1279C16.7002 13.0085 17.2828 13.052 17.8189 13.2529C18.6555 13.5651 19.5255 13.7816 20.4107 13.8984L20.4195 13.8994C21.1481 14.0022 21.8139 14.3693 22.2896 14.9306C22.76 15.4857 23.0106 16.193 22.9986 16.9199L22.9996 19.916L22.9967 20.0722C22.9791 20.4365 22.8951 20.7949 22.7486 21.1299C22.5813 21.5126 22.3357 21.8562 22.0279 22.1386C21.7202 22.4209 21.357 22.6357 20.9615 22.7695C20.5658 22.9033 20.1461 22.9536 19.7301 22.916C19.7241 22.9154 19.7175 22.9147 19.7115 22.914C16.4792 22.5627 13.3741 21.4585 10.6461 19.6894C8.10958 18.076 5.95864 15.9239 4.34627 13.3867C2.57375 10.6479 1.47008 7.52929 1.12557 4.28513C1.12504 4.28008 1.12407 4.27456 1.12362 4.2695C1.08622 3.85487 1.13624 3.43651 1.26912 3.04196C1.40206 2.64751 1.61546 2.28496 1.89608 1.97751C2.17687 1.66991 2.519 1.42411 2.89998 1.25583C3.28089 1.08761 3.69257 1.00038 4.10897 0.999973H7.10994ZM4.00741 3.00583C3.90424 3.01668 3.80288 3.04285 3.7076 3.08493C3.58065 3.14103 3.46719 3.22364 3.37362 3.32614C3.28011 3.4286 3.20894 3.5492 3.16463 3.68064C3.122 3.80721 3.10492 3.94111 3.11483 4.07419L3.18123 4.62302C3.52878 7.17777 4.39835 9.63367 5.73592 11.8379L6.02889 12.3066L6.03377 12.3134C7.49033 14.6057 9.43397 16.5492 11.7262 18.0058L11.734 18.0107C14.1954 19.6069 16.9965 20.6045 19.9127 20.9238C20.0505 20.9359 20.1898 20.9193 20.3209 20.875C20.4526 20.8303 20.5739 20.759 20.6764 20.665C20.7788 20.5709 20.8608 20.4565 20.9166 20.3291C20.9724 20.2015 21.0002 20.0631 20.9996 19.9238V16.9199C20.9996 16.9118 21.0004 16.9036 21.0006 16.8955C21.0067 16.6503 20.9218 16.4107 20.7633 16.2236C20.6066 16.0389 20.3884 15.9167 20.149 15.8808C19.1144 15.7443 18.0984 15.4918 17.1207 15.1269L17.1178 15.1259C16.9391 15.0589 16.7449 15.0442 16.5582 15.084C16.3713 15.1238 16.199 15.2162 16.0631 15.3506L14.7974 16.6172C14.4791 16.9355 13.9866 17.0018 13.5953 16.7793C10.9354 15.2667 8.73276 13.0642 7.2203 10.4043C6.99791 10.013 7.06512 9.52136 7.38338 9.2031L8.64803 7.9365C8.78243 7.80059 8.87571 7.62928 8.91561 7.44236C8.95549 7.25537 8.94089 7.06077 8.87362 6.88181L8.87264 6.87986C8.50885 5.90494 8.25649 4.89186 8.11971 3.86032L8.10311 3.77048C8.05482 3.56556 7.94256 3.3805 7.78182 3.24216C7.59784 3.08393 7.36236 2.99758 7.11971 2.99997H4.11092L4.00741 3.00583ZM14.0689 4.80857C14.1747 4.2665 14.6997 3.91277 15.2418 4.01853C16.4138 4.24724 17.4912 4.82066 18.3355 5.66501C19.1798 6.50938 19.7524 7.58681 19.981 8.75876C20.0867 9.30062 19.7337 9.82568 19.192 9.93161C18.6499 10.0374 18.1239 9.68362 18.0181 9.14157C17.8657 8.36019 17.4834 7.64202 16.9205 7.07907C16.3577 6.51635 15.6401 6.13391 14.859 5.98142C14.3169 5.87566 13.9632 5.35063 14.0689 4.80857ZM15.1607 0.00583192C17.4152 0.256351 19.5176 1.2662 21.1226 2.86911C22.7278 4.47221 23.7404 6.57374 23.9937 8.8281C24.0554 9.37685 23.6606 9.87178 23.1119 9.93357C22.5631 9.99523 22.0682 9.6005 22.0064 9.05173C21.8038 7.24818 20.9937 5.56667 19.7096 4.28415C18.4256 3.00186 16.7436 2.19457 14.94 1.99411C14.3911 1.93314 13.9953 1.43851 14.0562 0.889621C14.1172 0.340713 14.6118 -0.0551474 15.1607 0.00583192Z" fill="#0076BB"/>
</g>
<defs>
<clipPath id="clip0_10_24">
<rect width="24" height="24" fill="white"/>
</clipPath>
</defs>
</svg>
