<svg width="24" height="24" viewBox="0 0 24 24" fill="none" xmlns="http://www.w3.org/2000/svg">
<path d="M12.0002 0C14.5025 0.000200346 16.7238 1.88228 18.3645 4.42676C20.0292 7.00851 21.2287 10.4599 21.6359 14.0195C21.9437 16.7099 19.9234 18.927 17.3195 19.207C16.2939 19.3174 15.1065 19.414 13.8176 19.4639C13.8943 21.0052 14.0002 21.5 14.0002 21.5H16.5002C16.9143 21.5002 17.2502 21.8359 17.2502 22.25C17.2502 22.6641 16.9143 22.9998 16.5002 23H7.50021C7.08596 23 6.75021 22.6642 6.75021 22.25C6.75021 21.8358 7.08596 21.5 7.50021 21.5H12.5002C12.5002 21.5 12.2395 20.2745 12.2395 15.665C12.2395 14.8995 12.2399 14.2063 12.2404 13.583C12.5955 13.2418 13.1842 12.6676 14.0363 11.8154C14.9419 10.9099 15.5327 10.3013 15.8645 9.95508C16.0772 9.73302 16.1619 9.41746 15.9719 9.17578C15.9257 9.11708 15.8702 9.05355 15.8039 8.9873C15.7378 8.92111 15.675 8.86548 15.6164 8.81934C15.3747 8.62925 15.0582 8.71399 14.8361 8.92676C14.49 9.25854 13.8814 9.84932 12.9758 10.7549C12.7035 11.0272 12.4593 11.2726 12.2424 11.4922C12.244 10.6156 12.2459 9.99204 12.2473 9.59863C12.2485 9.26143 12.1395 8.90243 11.8186 8.79883C11.7268 8.76921 11.6204 8.75004 11.5002 8.75C11.3799 8.75 11.2728 8.76918 11.1809 8.79883C10.8601 8.90252 10.7509 9.26146 10.7522 9.59863C10.7549 10.3522 10.759 11.9508 10.76 14.5547C10.528 14.3196 10.2634 14.0532 9.96505 13.7549C9.0596 12.8494 8.45085 12.2585 8.1047 11.9268C7.88273 11.7142 7.56697 11.6296 7.3254 11.8193C7.2667 11.8655 7.20317 11.921 7.13693 11.9873C7.07063 12.0536 7.01516 12.1171 6.96896 12.1758C6.77921 12.4173 6.86386 12.7331 7.07638 12.9551C7.40813 13.3012 7.99906 13.91 8.9045 14.8154C9.80234 15.7133 10.4083 16.3024 10.7561 16.6357C10.7456 17.843 10.7164 18.7737 10.6809 19.4814C9.19892 19.4393 7.83679 19.3315 6.67989 19.207C4.07617 18.9269 2.05576 16.7099 2.36349 14.0195C2.77072 10.46 3.97026 7.0085 5.63497 4.42676C7.27577 1.88214 9.49781 -1e-06 12.0002 0Z" fill="#0076BB"/>
</svg>
